<svg width="289" height="125" viewBox="0 0 289 125" fill="none" xmlns="http://www.w3.org/2000/svg">
<path d="M96.9221 54.3291V7.6097H105.866L125.755 40.5802H121.016L140.571 7.6097H149.448L149.582 54.3291H139.437L139.37 23.1606H141.239L125.621 49.3902H120.749L104.798 23.1606H107.067V54.3291H96.9221Z" fill="#F33535"/>
<path d="M159.39 52.5654V23.1272H166.203V52.5654H159.39Z" fill="#29252C"/>
<path d="M183.781 53.0701C181.425 53.0701 179.169 52.7617 177.01 52.1449C174.851 51.5 173.113 50.673 171.795 49.6637L174.108 44.533C175.37 45.4302 176.856 46.1731 178.566 46.7619C180.304 47.3226 182.056 47.603 183.823 47.603C185.168 47.603 186.248 47.4768 187.061 47.2245C187.902 46.9441 188.519 46.5656 188.911 46.089C189.304 45.6124 189.5 45.0657 189.5 44.4489C189.5 43.6639 189.192 43.0471 188.575 42.5985C187.958 42.1219 187.145 41.7434 186.136 41.463C185.126 41.1546 184.005 40.8743 182.771 40.6219C181.566 40.3416 180.346 40.0051 179.112 39.6126C177.907 39.2201 176.799 38.7155 175.79 38.0987C174.781 37.4819 173.954 36.6688 173.309 35.6595C172.692 34.6502 172.384 33.3605 172.384 31.7905C172.384 30.1083 172.832 28.5803 173.73 27.2065C174.655 25.8047 176.028 24.6973 177.851 23.8842C179.701 23.0431 182.014 22.6226 184.79 22.6226C186.64 22.6226 188.463 22.8469 190.257 23.2954C192.051 23.716 193.635 24.3608 195.009 25.23L192.906 30.4027C191.533 29.6177 190.159 29.0429 188.785 28.6784C187.411 28.2859 186.066 28.0897 184.748 28.0897C183.43 28.0897 182.351 28.2439 181.51 28.5523C180.669 28.8607 180.066 29.2672 179.701 29.7719C179.337 30.2485 179.155 30.8092 179.155 31.454C179.155 32.211 179.463 32.8278 180.08 33.3044C180.697 33.753 181.51 34.1175 182.519 34.3979C183.528 34.6782 184.636 34.9586 185.841 35.2389C187.075 35.5193 188.294 35.8417 189.5 36.2062C190.734 36.5707 191.855 37.0613 192.864 37.6781C193.874 38.2949 194.687 39.108 195.303 40.1173C195.948 41.1266 196.271 42.4022 196.271 43.9442C196.271 45.5984 195.808 47.1124 194.883 48.4861C193.958 49.8599 192.57 50.9674 190.72 51.8084C188.897 52.6495 186.584 53.0701 183.781 53.0701Z" fill="#29252C"/>
<path d="M5.53959 106.288V59.5687H25.7624C29.9449 59.5687 33.549 60.2583 36.5746 61.6377C39.6003 62.9725 41.9362 64.908 43.5825 67.4442C45.2288 69.9804 46.052 73.0061 46.052 76.5212C46.052 79.9917 45.2288 82.9951 43.5825 85.5313C41.9362 88.0675 39.6003 90.0253 36.5746 91.4046C33.549 92.7395 29.9449 93.4069 25.7624 93.4069H11.5464L16.3518 88.5347V106.288H5.53959ZM16.3518 89.7361L11.5464 84.5969H25.1617C28.4988 84.5969 30.9905 83.885 32.6368 82.4612C34.2831 81.0374 35.1063 79.0573 35.1063 76.5212C35.1063 73.9405 34.2831 71.9382 32.6368 70.5144C30.9905 69.0905 28.4988 68.3786 25.1617 68.3786H11.5464L16.3518 63.2395V89.7361Z" fill="#29252C"/>
<path d="M67.1643 97.7927C62.9869 97.7927 59.7206 96.6292 57.3656 94.3022C55.0105 91.9752 53.833 88.6529 53.833 84.3353V67.8499H60.6458V84.083C60.6458 86.8866 61.2206 88.9052 62.3701 90.1388C63.5196 91.3724 65.1317 91.9892 67.2063 91.9892C69.281 91.9892 70.8931 91.3724 72.0426 90.1388C73.1921 88.9052 73.7669 86.8866 73.7669 84.083V67.8499H80.4956V84.3353C80.4956 88.6529 79.3181 91.9752 76.963 94.3022C74.6079 96.6292 71.3417 97.7927 67.1643 97.7927Z" fill="#29252C"/>
<path d="M95.1578 79.7093H109.33V85.0082H95.1578V79.7093ZM95.6624 91.821H111.685V97.2881H88.8916V67.8499H111.138V73.317H95.6624V91.821Z" fill="#29252C"/>
<path d="M118.818 97.2881V67.8499H133.201C136.901 67.8499 139.677 68.5508 141.527 69.9526C143.406 71.3544 144.345 73.2048 144.345 75.5038C144.345 77.0458 143.966 78.3916 143.21 79.5411C142.453 80.6625 141.415 81.5316 140.097 82.1484C138.78 82.7652 137.266 83.0736 135.556 83.0736L136.355 81.3494C138.205 81.3494 139.845 81.6578 141.275 82.2746C142.705 82.8634 143.812 83.7465 144.597 84.924C145.41 86.1016 145.817 87.5454 145.817 89.2557C145.817 91.7789 144.822 93.7555 142.831 95.1854C140.84 96.5872 137.911 97.2881 134.042 97.2881H118.818ZM125.589 92.1574H133.537C135.303 92.1574 136.635 91.8771 137.532 91.3163C138.457 90.7276 138.92 89.8024 138.92 88.5407C138.92 87.3071 138.457 86.396 137.532 85.8072C136.635 85.1904 135.303 84.882 133.537 84.882H125.084V79.9195H132.359C134.014 79.9195 135.275 79.6392 136.144 79.0785C137.042 78.4897 137.49 77.6065 137.49 76.429C137.49 75.2795 137.042 74.4244 136.144 73.8637C135.275 73.2749 134.014 72.9805 132.359 72.9805H125.589V92.1574Z" fill="#29252C"/>
<path d="M152.691 97.2881V67.8499H159.504V91.7369H174.265V97.2881H152.691Z" fill="#29252C"/>
<path d="M179.747 97.2881V67.8499H186.56V97.2881H179.747Z" fill="#29252C"/>
<path d="M201.346 97.2881V73.4011H191.926V67.8499H217.579V73.4011H208.159V97.2881H201.346Z" fill="#29252C"/>
<path fill-rule="evenodd" clip-rule="evenodd" d="M260.509 80.5088C260.509 86.2519 258.672 90.6458 255.853 93.8257H255.885L255.567 94.141C255.24 94.4929 254.9 94.8293 254.549 95.1503L240.142 109.431L225.94 95.5139C224.628 94.4124 223.453 93.108 222.475 91.5836C220.607 88.6728 219.459 84.9598 219.459 80.3257C219.459 68.2441 230.468 61.2881 239.87 61.2881C249.663 61.2881 260.509 68.6103 260.509 80.5088ZM240.009 92.8656C246.965 92.8656 251.725 87.518 251.725 80.9213C251.725 74.3247 247.148 68.8855 239.963 68.8855C232.778 68.8855 228.248 74.2789 228.248 80.8756C228.248 87.4722 232.778 92.8656 240.009 92.8656Z" fill="#F33535"/>
<path d="M275.323 97.7927C272.968 97.7927 270.711 97.4843 268.552 96.8675C266.393 96.2227 264.655 95.3956 263.337 94.3863L265.65 89.2557C266.912 90.1528 268.398 90.8958 270.108 91.4846C271.846 92.0453 273.599 92.3256 275.365 92.3256C276.711 92.3256 277.79 92.1995 278.603 91.9472C279.444 91.6668 280.061 91.2883 280.453 90.8117C280.846 90.3351 281.042 89.7884 281.042 89.1716C281.042 88.3865 280.734 87.7697 280.117 87.3212C279.5 86.8445 278.687 86.466 277.678 86.1857C276.669 85.8773 275.547 85.5969 274.314 85.3446C273.108 85.0642 271.888 84.7278 270.655 84.3353C269.449 83.9428 268.342 83.4381 267.332 82.8213C266.323 82.2045 265.496 81.3915 264.851 80.3821C264.234 79.3728 263.926 78.0832 263.926 76.5131C263.926 74.8309 264.375 73.303 265.272 71.9292C266.197 70.5274 267.571 69.4199 269.393 68.6069C271.244 67.7658 273.557 67.3452 276.332 67.3452C278.183 67.3452 280.005 67.5695 281.799 68.0181C283.594 68.4386 285.178 69.0835 286.551 69.9526L284.449 75.1253C283.075 74.3403 281.701 73.7656 280.327 73.4011C278.954 73.0086 277.608 72.8123 276.29 72.8123C274.972 72.8123 273.893 72.9665 273.052 73.2749C272.211 73.5833 271.608 73.9899 271.244 74.4945C270.879 74.9711 270.697 75.5319 270.697 76.1767C270.697 76.9337 271.005 77.5505 271.622 78.0271C272.239 78.4757 273.052 78.8401 274.061 79.1205C275.071 79.4009 276.178 79.6812 277.384 79.9616C278.617 80.242 279.837 80.5644 281.042 80.9289C282.276 81.2933 283.397 81.784 284.407 82.4008C285.416 83.0176 286.229 83.8306 286.846 84.8399C287.491 85.8492 287.813 87.1249 287.813 88.6669C287.813 90.321 287.35 91.835 286.425 93.2088C285.5 94.5826 284.112 95.69 282.262 96.5311C280.439 97.3722 278.126 97.7927 275.323 97.7927Z" fill="#29252C"/>
</svg>
